<svg xmlns="http://www.w3.org/2000/svg" viewBox="0 0 64 64" role="img" aria-label="AI Chip Icon">
  <defs>
    <linearGradient id="bg" x1="0" y1="0" x2="1" y2="1">
      <stop offset="0%" stop-color="#0ea5e9"/>
      <stop offset="100%" stop-color="#0369a1"/>
    </linearGradient>
    <linearGradient id="chip" x1="0" y1="0" x2="1" y2="1">
      <stop offset="0%" stop-color="#ffffff"/>
      <stop offset="100%" stop-color="#dbeafe"/>
    </linearGradient>
  </defs>

  <rect x="4" y="4" width="56" height="56" rx="14" fill="url(#bg)"/>

  <!-- chip legs -->
  <g stroke="#bae6fd" stroke-width="2" stroke-linecap="round" opacity="0.95">
    <path d="M20 12V16"/><path d="M28 12V16"/><path d="M36 12V16"/><path d="M44 12V16"/>
    <path d="M20 48V52"/><path d="M28 48V52"/><path d="M36 48V52"/><path d="M44 48V52"/>
    <path d="M12 20H16"/><path d="M12 28H16"/><path d="M12 36H16"/><path d="M12 44H16"/>
    <path d="M48 20H52"/><path d="M48 28H52"/><path d="M48 36H52"/><path d="M48 44H52"/>
  </g>

  <!-- chip body -->
  <rect x="18" y="18" width="28" height="28" rx="8" fill="url(#chip)"/>
  <rect x="22" y="22" width="20" height="20" rx="5" fill="#0ea5e9" opacity="0.2"/>

  <!-- AI glyph -->
  <g fill="#075985">
    <path d="M24.8 39.4L29 24.6h2.6l4.2 14.8h-2.5l-.8-3h-4.4l-.8 3h-2.5zm3.9-5.1h3.3l-1.6-6.1h-.1l-1.6 6.1z"/>
    <rect x="37.3" y="24.6" width="2.4" height="14.8" rx="1.2"/>
  </g>
</svg>
